<svg id="Calque_1" data-name="Calque 1" xmlns="http://www.w3.org/2000/svg" viewBox="0 0 725.48 725.46"><defs><style>.cls-1{fill:#fff;}</style></defs><title>Logo LegalAId_white</title><path class="cls-1" d="M832.16,425.57,574.55,168a105.11,105.11,0,0,0-148.67,0L168.27,425.57a105.11,105.11,0,0,0,0,148.67L425.88,831.85a105.15,105.15,0,0,0,148.67,0L832.16,574.24A105.11,105.11,0,0,0,832.16,425.57ZM459.08,338.94l10.83-11.5a22.68,22.68,0,0,1,32-.93l96.79,91.31a22.68,22.68,0,0,1,.94,32l-10.85,11.49a22.66,22.66,0,0,1-32,.93L460,371A22.65,22.65,0,0,1,459.08,338.94ZM379.93,470.85l78.3-83a8.44,8.44,0,0,1,11.95-.35l69.51,65.58A8.45,8.45,0,0,1,540,465l-78.3,83a8.44,8.44,0,0,1-11.95.35L380.27,482.8A8.44,8.44,0,0,1,379.93,470.85Zm81,126.09-10.83,11.5a22.68,22.68,0,0,1-32,.93l-96.79-91.31a22.67,22.67,0,0,1-.94-32l10.85-11.48a22.63,22.63,0,0,1,32-.94L460,564.92A22.65,22.65,0,0,1,460.89,596.94Zm23.28-31.53-7-6.57a13.73,13.73,0,0,1-.55-19.42l55.66-59a13.75,13.75,0,0,1,19.43-.57l7,6.57a13.73,13.73,0,0,1,.58,19.42l-55.68,59A13.72,13.72,0,0,1,484.17,565.41Zm152.4,131.87L514.84,560.13l42.77-45.35L700,630.11a4.43,4.43,0,0,1,.42,6.47l-57.36,60.8A4.42,4.42,0,0,1,636.57,697.28Zm96.57-31.22-59,62.55a6.23,6.23,0,0,1-9.18-.13L647.55,709a6.61,6.61,0,0,1,.13-8.93l55.57-58.92a6.61,6.61,0,0,1,9-.6L732.54,657A6.23,6.23,0,0,1,733.14,666.06Z" transform="translate(-137.48 -137.17)"/></svg>